<?xml version="1.0" encoding="iso-8859-1"?>
<!-- Generator: Adobe Illustrator 19.0.0, SVG Export Plug-In . SVG Version: 6.00 Build 0)  -->
<svg version="1.1" id="Layer_1" xmlns="http://www.w3.org/2000/svg" xmlns:xlink="http://www.w3.org/1999/xlink" x="0px" y="0px"
	 viewBox="0 0 512 512" style="enable-background:new 0 0 512 512;" xml:space="preserve">
<g>
	<g>
		<path d="M482.981,226.722l-29.132-16.922c-2.67-1.553-5.969-1.56-8.649-0.017c-2.678,1.541-4.33,4.397-4.33,7.487
			c0,9.528-7.751,17.279-17.279,17.279h-1.728c-2.639,0-5.133,1.206-6.772,3.274c-1.638,2.068-2.242,4.772-1.639,7.341
			l14.445,61.501c3.069,13.065-1.427,26.286-11.141,34.67c-10.675-20.174-31.659-33.121-55.138-33.121
			c-22.886,0-42.925,12.387-53.794,30.8c-9.478-16.055-25.926-27.515-45.156-30.189v-23.937h19.472
			c68.249,0,123.772-55.523,123.772-123.772S350.39,37.345,282.141,37.345h-19.472V8.639c0-4.771-3.867-8.639-8.639-8.639
			c-4.772,0-8.639,3.868-8.639,8.639v28.706H133.651c-4.772,0-8.639,3.868-8.639,8.639c0,4.771,3.867,8.639,8.639,8.639
			c58.721,0,106.493,47.773,106.493,106.493c0,58.72-47.773,106.493-106.493,106.493c-4.772,0-8.639,3.868-8.639,8.639
			s3.867,8.639,8.639,8.639H245.39v23.937c-19.222,2.674-35.664,14.125-45.144,30.17c-1.713-2.914-3.657-5.703-5.841-8.321
			c-3.057-3.665-8.507-4.156-12.168-1.1c-3.665,3.056-4.157,8.505-1.101,12.168c6.746,8.086,10.461,18.352,10.461,28.906
			c0,24.892-20.251,45.144-45.142,45.144c-24.008,0-43.813-18.756-45.092-42.758c-0.043-0.721-0.065-1.502-0.065-2.386
			c0-24.899,20.256-45.155,45.155-45.155c3.826,0,7.625,0.478,11.291,1.421c4.616,1.19,9.331-1.594,10.519-6.215
			c1.189-4.62-1.594-9.331-6.216-10.519c-5.07-1.305-10.318-1.966-15.595-1.966c-32.435,0-59.162,24.864-62.147,56.53
			c-20.678-1.815-36.952-19.222-36.952-40.369c0-0.039-0.009-0.061-0.012-0.096v-20.132c0-12.971-10.552-23.522-23.522-23.522
			c-6.27,0-12.175,2.44-16.638,6.885c-4.446,4.448-6.895,10.356-6.895,16.637v10.241c0,4.771,3.867,8.639,8.639,8.639
			s8.639-3.868,8.639-8.639v-10.241c0-1.667,0.652-3.236,1.822-4.406c1.189-1.184,2.763-1.836,4.434-1.836
			c3.442,0,6.243,2.8,6.243,6.243v98.155c0,35.163,28.607,63.77,63.769,63.77h54.025l-20.291,32.734
			c-2.513,4.056-1.264,9.381,2.792,11.895c1.417,0.879,2.99,1.297,4.543,1.297c2.891,0,5.716-1.451,7.352-4.089l25.934-41.838h92.79
			l-20.291,32.734c-2.513,4.056-1.264,9.381,2.792,11.895c1.417,0.879,2.99,1.297,4.543,1.297c2.891,0,5.716-1.451,7.352-4.089
			l25.934-41.838h130.42c21.853,0,42.629-9.44,57-25.899c14.37-16.455,20.922-38.308,17.978-59.953l-1.001-7.369
			c-0.642-4.729-4.999-8.039-9.723-7.398c-4.727,0.643-8.039,4.996-7.398,9.723l1.001,7.369
			c2.272,16.703-2.785,33.563-13.872,46.261c-11.091,12.701-27.123,19.986-43.986,19.986H292.019l22.841-36.849
			c11.448,12.942,28.162,21.124,46.76,21.124c34.419,0,62.421-28.003,62.421-62.422c0-4.146-0.408-8.251-1.208-12.271
			c18.072-11.997,26.98-33.979,21.888-55.663l-12.225-52.048c10.357-2.763,18.817-10.232,22.938-19.964l18.873,10.963
			c8.024,4.656,14.084,11.898,17.366,20.312c-2.327-0.645-4.776-0.991-7.305-0.991c-15.08,0-27.346,12.252-27.346,27.312
			c0,1.231,0.084,2.479,0.252,3.71l7.713,56.717c0.643,4.729,4.996,8.038,9.724,7.396c4.727-0.643,8.039-4.997,7.396-9.724
			l-7.713-56.716c-0.063-0.461-0.094-0.926-0.094-1.382c0-5.533,4.517-10.033,10.068-10.033s10.068,4.511,10.068,10.056
			c0,4.771,3.867,8.639,8.639,8.639s8.639-3.868,8.639-8.639v-11.703C511.714,256.126,500.703,237.007,482.981,226.722z
			 M158.568,448.796H93.833v-0.001c-25.635,0-46.49-20.855-46.49-46.491v-36.759c9.821,9.676,23.074,15.871,37.746,16.573
			c5.4,29.146,30.932,50.955,61.365,50.955c8.947,0,17.454-1.906,25.154-5.311L158.568,448.796z M196.676,267.611
			c36.342-21.588,60.747-61.243,60.747-106.493c0-45.251-24.406-84.905-60.747-106.493h85.465
			c58.721,0,106.493,47.773,106.493,106.493c0,58.72-47.773,106.493-106.493,106.493H196.676z M271.689,448.794h-92.79
			l25.222-40.689c11.403,15.149,29.531,24.965,49.91,24.965c12.302,0,23.777-3.591,33.454-9.759L271.689,448.794z M254.03,415.792
			c-24.899,0-45.155-20.252-45.155-45.144c0-24.899,20.256-45.155,45.155-45.155s45.155,20.256,45.155,45.155
			C299.185,395.54,278.928,415.792,254.03,415.792z M361.62,415.792c-24.899,0-45.155-20.252-45.155-45.144
			c0-24.899,20.256-45.155,45.155-45.155c19.693,0,36.968,12.585,42.988,31.314c1.43,4.448,2.154,9.105,2.154,13.841
			C406.762,395.54,386.512,415.792,361.62,415.792z"/>
	</g>
</g>
<g>
	<g>
		<path d="M146.452,339.316c-17.275,0-31.332,14.056-31.332,31.332c0,17.271,14.056,31.321,31.332,31.321
			c17.27,0,31.319-14.05,31.319-31.321C177.772,353.372,163.722,339.316,146.452,339.316z M146.454,384.69
			c-7.75,0-14.053-6.299-14.053-14.042c0-7.749,6.304-14.053,14.053-14.053c7.742,0,14.041,6.305,14.041,14.053
			C160.494,378.392,154.196,384.69,146.454,384.69z"/>
	</g>
</g>
<g>
	<g>
		<path d="M254.03,339.316c-17.276,0-31.332,14.056-31.332,31.332c0,17.271,14.056,31.321,31.332,31.321s31.332-14.05,31.332-31.321
			C285.362,353.372,271.306,339.316,254.03,339.316z M254.03,384.69c-7.749,0-14.053-6.299-14.053-14.042
			c0-7.749,6.304-14.053,14.053-14.053c7.75,0,14.053,6.304,14.053,14.053C268.083,378.392,261.779,384.69,254.03,384.69z"/>
	</g>
</g>
<g>
	<g>
		<path d="M390.361,358.201c-1.899-4.376-6.987-6.386-11.365-4.486c-4.376,1.899-6.385,6.988-4.486,11.365
			c0.763,1.758,1.15,3.632,1.15,5.568c0,7.743-6.299,14.042-14.041,14.042c-7.75,0-14.053-6.299-14.053-14.042
			c0-7.749,6.304-14.053,14.053-14.053c4.772,0,8.639-3.868,8.639-8.639s-3.867-8.639-8.639-8.639
			c-17.276,0-31.332,14.056-31.332,31.332c0,17.271,14.056,31.321,31.332,31.321c17.27,0,31.319-14.05,31.319-31.321
			C392.939,366.331,392.072,362.143,390.361,358.201z"/>
	</g>
</g>
<g>
</g>
<g>
</g>
<g>
</g>
<g>
</g>
<g>
</g>
<g>
</g>
<g>
</g>
<g>
</g>
<g>
</g>
<g>
</g>
<g>
</g>
<g>
</g>
<g>
</g>
<g>
</g>
<g>
</g>
</svg>
