<svg enable-background="new 0 0 140 140" height="512" viewBox="0 0 140 140" width="512" xmlns="http://www.w3.org/2000/svg"><circle cx="70" cy="70" fill="#fed35b" r="64"/><path d="m95.2684479 29.6260357h-50.5400391c-1.6900024 0-3.0599976 1.3699951-3.0599976 3.0700092 0 .8900146.3900146 1.6900024 1 2.25l3.8099976 3.8099976c.0100098.0700073.0100098.1400146.0200195.210022.0299683.2399902.0499878.4899902.0800171.7399902.0199585.1699829.039978.3399658.0599976.5200195.0299683.25.0700073.5.0999756.75.0300293.1799927.0499878.3499756.0800171.5199585.039978.2999878.0899658.6000366.1400146.8900146.0499878.2399902.0899658.4899902.1299438.7299805.0600586.2900391.1100464.5800171.1700439.8699951.039978.210022.0899658.4200439.1400146.6300049.039978.210022.0899658.4299927.1399536.6400146.0499878.2299805.1100464.4500122.1600342.6799927.0499878.2000122.0999756.3900146.1499634.5900269.0599976.2399902.1300049.4699707.2000122.7099609.039978.1800537.1000366.3600464.1500244.5300293.0700073.2600098.1399536.5100098.2199707.7600098.0499878.1499634.1000366.2999878.1500244.4599609.0899658.2700195.1699829.5400391.2699585.8099976.0200195.0700073.0500488.1400146.0700073.2200317.3600464 1.0200195.7600098 2.0299683 1.2000122 3.0200195.0400391.0899658.0800171.1799927.1199951.2699585.1300049.2900391.2700195.5800171.4100342.8600464.0499878.0999756.0999756.2099609.1499634.3099976.1400146.2799683.2800293.5599976.4299927.8399658.0500488.0900269.1000366.1799927.1500244.2700195.1599731.289978.3200073.5800171.4799805.8699951.0400391.0499878.0700073.1099854.1100464.1599731.789978 1.3400269 1.6799927 2.6000366 2.6599731 3.7700195l.039978.039978c.2200317.2700195.460022.5300293.7000122.7900391.0400391.039978.0800171.0899658.1300049.1300049.2299805.25.4700317.4899902.7200317.7299805.039978.039978.0899658.0900269.1299438.1300049.2600098.2399902.5100098.4799805.7800293.710022.0200195.0199585.039978.0299683.0599976.0499878.0300293.0299683.0700073.0499878.0999756.0799561l8.2000122 8.2000122c-.3599854 1.0200195-1.1599731 1.8599854-2.2199707 2.2399902-11.9800415 4.2700195-16.6300049 19.6500244-16.9700317 30.7600098h-1.5599976c-1.6900024 0-3.0599976 1.3699951-3.0599976 3.0599976 0 .6700439.2200317 1.2800293.5800171 1.7900391l.0299683.0299683c.1800537.2399902.3900146.4500122.6300049.6300049l24.170105 24.170105c.9690553.043579 1.9417116.0738524 2.921509.0738524 35.3463135 0 64-28.6538086 64-64 0-.9745483-.0303345-1.9418335-.0734253-2.9057617l-36.1181641-36.118166c-.5499878-.8099975-1.4799805-1.3500366-2.539978-1.3500366z" opacity=".1"/><path d="m70 34.8958473h-23.7330093c.1461143 13.0057755 6.3359642 32.7151528 23.7330093 32.767292 17.397049-.0521393 23.5868988-19.7615166 23.733017-32.767292z" fill="#ededed"/><path d="m95.269783 29.6295872h-50.5396042c-1.6912651 0-3.0622749 1.3708858-3.0622749 3.0622349 0 1.691185 1.3710098 3.0622368 3.0622749 3.0622368h50.5396042c1.6912689 0 3.0623169-1.3710518 3.0623169-3.0622368 0-1.6913491-1.371048-3.0622349-3.0623169-3.0622349z" fill="#467082"/><path d="m76.7464294 73.4824066c-1.470871-.5245743-2.449646-1.9208221-2.449646-3.4824524 0-1.5616226.978775-2.9578781 2.449646-3.4824524 12.2829971-4.3796005 16.8611984-20.4637527 16.986557-31.6216545h-23.7330093-23.7330131c.1253586 11.1579018 4.7036133 27.242054 16.986557 31.6216545 1.4708748.5245743 2.4496498 1.9208298 2.4496498 3.4824524 0 1.5616302-.978775 2.9578781-2.4496498 3.4824524-12.2829437 4.3796005-16.861145 20.4639664-16.9865036 31.6216583h23.7330132 23.7330093c-.1253586-11.1578979-4.7036133-27.2422714-16.9866105-31.6216583z" fill="#ededed"/><path d="m52.1053352 88.9426346c-1.769516 4.2630539-2.7967987 9.0228729-3.1201744 13.5527725h42.0297394c-.3235397-4.5296936-1.3508224-9.2897186-3.1203384-13.5527725z" fill="#dd584d"/><path d="m64.1284332 64.0602112c2.5020828.8907852 4.1834412 3.2778015 4.1834412 5.9399567 0 .6031265-.0970688 20.9105911-.2598419 21.4714661h3.8960495c-.1627731-.5608749-.259903-20.8681259-.259903-21.4714661 0-2.6613007 1.6809387-5.0483246 4.1817474-5.9399567 5.3702164-1.9144554 9.2522507-6.6483727 11.7567749-12.3690262h-35.2536659c2.5043145 5.7206535 6.3861428 10.4545708 11.7553978 12.3690262z" fill="#dd584d"/><path d="m67.1223984 66.5215378c.6261063.5218124 1.0434723 1.9131851 1.0434723 3.4782028 0 1.565239-.417366 2.956604-1.0434723 3.4869156-5.2433662 4.3738632-7.1912079 20.4605713-7.2433777 31.6169815h-5.8085976c.0782852-11.1564102 3.1564751-27.2431183 11.399807-31.6169815.9913025-.5303116 1.6434631-1.9216766 1.6434631-3.4869156 0-1.5650177-.6521606-2.9563904-1.6434631-3.4782028-8.2433319-4.3825722-11.3215218-20.4692764-11.399807-31.6254768h5.8085976c.0521698 11.1562004 2.0000114 27.2429046 7.2433777 31.6254768z" fill="#fff" opacity=".25"/><path d="m85.9308014 105.1036377h-5.8085938c-.0521698-11.1564102-2.008667-27.2431183-7.2433777-31.6169815-.6260529-.5303116-1.0434723-1.9216766-1.0434723-3.4869156 0-1.5650177.4174194-2.9563904 1.0434723-3.4782028 5.2347107-4.3825722 7.1912079-20.4692764 7.2433777-31.6254768h5.8085938c-.0869293 11.1562004-3.1564713 27.2429047-11.3998032 31.6254768-.9913025.5218124-1.6434708 1.9131851-1.6434708 3.4782028 0 1.565239.6521683 2.956604 1.6434708 3.4869156 8.2433319 4.3738632 11.3128739 20.4605713 11.3998032 31.6169815z" fill="#fff" opacity=".25"/><g fill="#467082"><path d="m95.269783 110.3704147h-50.5396042c-1.6912651 0-3.0622749-1.3708878-3.0622749-3.0622406 0-1.6911774 1.3710098-3.062233 3.0622749-3.062233h50.5396042c1.6912689 0 3.0623169 1.3710556 3.0623169 3.062233 0 1.6913529-1.371048 3.0622406-3.0623169 3.0622406z"/><path d="m95.2697525 29.6295872h-50.5396042c-1.6912689 0-3.0622787 1.3708858-3.0622787 3.0622349 0 1.691185 1.3710098 3.0622368 3.0622787 3.0622368h50.5396042c1.6912613 0 3.0623169-1.3710518 3.0623169-3.0622368 0-1.6913491-1.3710556-3.0622349-3.0623169-3.0622349z"/></g></svg>